<?xml version="1.0" standalone="no"?>
<!DOCTYPE svg PUBLIC "-//W3C//DTD SVG 20010904//EN"
 "http://www.w3.org/TR/2001/REC-SVG-20010904/DTD/svg10.dtd">
<svg version="1.0" xmlns="http://www.w3.org/2000/svg"
 width="2382.000000pt" height="909.000000pt" viewBox="0 0 2382.000000 909.000000"
 preserveAspectRatio="xMidYMid meet">

<g transform="translate(0.000000,909.000000) scale(0.100000,-0.100000)"
fill="#000000" stroke="none">
<path d="M2552 6547 l-272 -272 0 -273 0 -272 272 0 273 0 -273 -273 -272
-272 0 -268 0 -267 277 0 278 0 267 267 268 268 0 -268 0 -267 272 0 273 0
267 267 268 268 0 272 0 273 -267 0 -268 0 268 268 267 267 0 278 0 277 -267
0 -268 0 -272 -272 -273 -273 0 273 0 272 -273 0 -272 0 -273 -273z m1083
-819 l265 -3 -265 -265 -265 -265 0 268 0 267 -272 0 -273 0 270 270 270 270
3 -270 2 -270 265 -2z"/>
<path d="M4848 6807 c-110 -31 -198 -147 -198 -262 0 -100 69 -205 162 -245
143 -61 304 3 363 144 25 58 20 163 -11 224 -57 114 -191 174 -316 139z"/>
<path d="M5675 6811 c-129 -34 -204 -132 -205 -267 0 -156 110 -266 265 -266
142 0 252 97 271 239 13 105 -52 225 -149 272 -48 23 -137 34 -182 22z"/>
<path d="M6472 6805 c-126 -39 -200 -148 -190 -279 12 -147 120 -248 266 -248
81 0 125 17 182 68 57 51 82 105 88 187 4 60 2 73 -27 131 -36 74 -88 118
-165 141 -60 18 -97 18 -154 0z"/>
<path d="M5235 6394 c-55 -19 -109 -66 -143 -122 -24 -41 -27 -57 -27 -133 0
-78 3 -90 30 -134 60 -97 148 -141 262 -132 226 18 325 296 163 457 -73 74
-186 99 -285 64z"/>
<path d="M6064 6400 c-61 -19 -126 -73 -158 -130 -27 -48 -31 -65 -31 -130 1
-64 5 -83 30 -129 52 -94 133 -141 244 -141 74 0 145 34 197 93 117 132 73
340 -89 423 -37 20 -148 28 -193 14z"/>
<path d="M4814 5982 c-58 -28 -106 -73 -134 -129 -33 -63 -34 -167 -4 -233 95
-208 389 -211 489 -5 24 48 27 64 23 127 -6 112 -54 189 -144 233 -57 28 -177
31 -230 7z"/>
<path d="M5649 5990 c-68 -20 -142 -92 -168 -163 -20 -52 -13 -157 13 -213 41
-88 144 -154 241 -154 113 0 229 87 261 195 39 135 -29 276 -159 330 -38 16
-143 19 -188 5z"/>
<path d="M7970 5575 l0 -345 70 0 70 0 0 103 0 104 64 52 65 52 83 -88 c46
-48 112 -119 148 -156 l65 -68 90 3 89 3 -183 193 c-100 106 -181 196 -179
201 2 5 77 71 168 146 91 75 167 139 169 141 2 2 -40 4 -95 4 l-99 -1 -190
-163 -190 -163 -3 163 -2 164 -70 0 -70 0 0 -345z"/>
<path d="M9350 5575 l0 -345 65 0 65 0 0 345 0 345 -65 0 -65 0 0 -345z"/>
<path d="M11180 5575 l0 -345 65 0 65 0 0 30 0 30 38 -24 c75 -50 196 -58 284
-18 141 63 190 243 102 378 -74 114 -266 148 -385 70 l-39 -26 0 125 0 125
-65 0 -65 0 0 -345z m387 35 c54 -24 83 -70 83 -130 0 -60 -29 -106 -83 -130
-80 -37 -165 -22 -222 39 -26 28 -30 40 -30 91 0 51 4 63 30 91 57 61 142 76
222 39z"/>
<path d="M9660 5800 l0 -70 -60 0 -60 0 0 -55 0 -55 60 0 60 0 0 -132 c0 -159
14 -200 83 -239 35 -20 55 -24 127 -24 47 1 101 6 121 13 l36 13 -10 49 -9 49
-83 -6 c-80 -6 -84 -5 -109 20 -25 25 -26 31 -26 142 l0 115 110 0 110 0 0 55
0 55 -110 0 -110 0 0 70 0 70 -65 0 -65 0 0 -70z"/>
<path d="M13063 5721 c-112 -38 -168 -115 -168 -231 0 -120 63 -201 184 -236
71 -21 158 -13 219 21 54 30 52 30 52 5 0 -122 -220 -171 -319 -71 l-36 37
-47 -30 c-27 -16 -48 -35 -48 -41 0 -23 77 -82 131 -101 63 -21 202 -25 265
-6 70 21 130 68 158 124 26 51 26 54 26 295 l0 243 -65 0 c-63 0 -65 -1 -65
-25 0 -30 -4 -31 -39 -5 -58 41 -164 50 -248 21z m217 -109 c46 -23 80 -75 80
-122 0 -80 -72 -140 -170 -140 -98 0 -170 60 -170 140 0 80 72 140 170 140 32
0 69 -7 90 -18z"/>
<path d="M13733 5721 c-112 -38 -168 -115 -168 -231 0 -120 63 -201 184 -236
71 -21 158 -13 219 21 54 30 52 30 52 5 0 -122 -220 -171 -319 -71 l-36 37
-47 -30 c-27 -16 -48 -35 -48 -41 0 -23 77 -82 131 -101 63 -21 202 -25 265
-6 70 21 130 68 158 124 26 51 26 54 26 295 l0 243 -65 0 c-63 0 -65 -1 -65
-25 0 -30 -4 -31 -39 -5 -58 41 -164 50 -248 21z m217 -109 c46 -23 80 -75 80
-122 0 -80 -72 -140 -170 -140 -98 0 -170 60 -170 140 0 80 72 140 170 140 32
0 69 -7 90 -18z"/>
<path d="M14433 5730 c-59 -12 -115 -43 -151 -85 -18 -20 -32 -39 -32 -44 0
-4 25 -15 57 -25 51 -16 57 -17 65 -2 27 49 165 74 228 41 25 -13 48 -50 38
-60 -2 -3 -64 -11 -137 -19 -152 -17 -212 -40 -249 -96 -43 -64 -16 -152 59
-191 82 -41 236 -31 309 21 l28 20 31 -29 c32 -30 76 -42 129 -34 31 5 32 7
32 52 0 46 0 46 -32 46 l-33 0 -5 147 c-4 128 -8 150 -26 175 -57 77 -176 109
-311 83z m207 -301 c0 -75 -139 -133 -239 -98 -40 14 -52 53 -24 80 15 15 46
23 124 33 149 20 139 21 139 -15z"/>
<path d="M15139 5726 c-25 -6 -60 -22 -77 -35 l-32 -22 0 30 0 31 -65 0 -65 0
0 -250 0 -250 65 0 65 0 0 128 c0 70 5 143 10 163 31 111 193 136 247 36 14
-25 18 -63 21 -179 l4 -148 65 0 65 0 -4 178 c-3 160 -5 181 -25 219 -51 94
-154 132 -274 99z"/>
<path d="M8710 5574 c0 -181 9 -228 57 -283 73 -85 236 -92 326 -13 16 14 17
13 17 -16 l0 -32 65 0 65 0 0 250 0 250 -64 0 -65 0 -3 -161 -3 -161 -37 -34
c-32 -29 -45 -34 -87 -34 -60 0 -95 14 -118 49 -14 21 -18 55 -21 184 l-4 157
-64 0 -64 0 0 -156z"/>
<path d="M10090 5574 c0 -181 9 -228 57 -283 73 -85 236 -92 326 -13 16 14 17
13 17 -16 l0 -32 65 0 65 0 0 250 0 250 -64 0 -65 0 -3 -161 -3 -161 -37 -34
c-32 -29 -45 -34 -87 -34 -60 0 -95 14 -118 49 -14 21 -18 55 -21 184 l-4 157
-64 0 -64 0 0 -156z"/>
<path d="M10730 5480 l0 -250 65 0 65 0 0 113 c0 61 4 128 10 146 21 74 98
117 195 109 l46 -3 -3 65 -3 65 -42 3 c-62 5 -119 -15 -164 -55 l-39 -35 0 46
0 46 -65 0 -65 0 0 -250z"/>
<path d="M11840 5480 l0 -250 65 0 65 0 0 113 c0 61 4 128 10 146 21 74 98
117 195 109 l46 -3 -3 65 -3 65 -42 3 c-62 5 -119 -15 -164 -55 l-39 -35 0 46
0 46 -65 0 -65 0 0 -250z"/>
<path d="M12385 5485 c123 -239 126 -245 111 -273 -24 -46 -83 -64 -140 -42
-24 9 -26 7 -36 -31 -6 -22 -10 -48 -8 -57 5 -28 111 -41 181 -21 76 21 97 52
252 366 80 162 145 297 145 299 0 2 -31 4 -69 4 l-69 0 -48 -102 c-27 -57 -65
-137 -85 -178 l-37 -75 -86 178 -87 177 -75 0 -75 0 126 -245z"/>
<path d="M5258 5586 c-242 -67 -269 -396 -42 -506 56 -28 160 -31 215 -7 50
21 116 82 142 131 31 58 31 184 0 242 -62 117 -193 175 -315 140z"/>
<path d="M4844 5179 c-57 -16 -126 -71 -155 -124 -54 -96 -49 -199 14 -291 47
-71 110 -106 200 -112 94 -6 159 20 220 88 50 55 67 103 67 186 0 176 -175
303 -346 253z"/>
<path d="M7980 4455 l0 -285 40 0 40 0 0 93 0 93 38 37 38 37 102 -130 103
-130 45 0 44 0 -120 155 c-66 84 -120 157 -120 161 0 3 50 60 110 125 61 65
110 121 110 124 0 3 -19 5 -42 5 -42 0 -45 -2 -173 -145 l-130 -145 -3 145 -3
145 -39 0 -40 0 0 -285z"/>
<path d="M10480 4700 l0 -40 40 0 40 0 0 40 0 40 -40 0 -40 0 0 -40z"/>
<path d="M10620 4700 l0 -40 40 0 40 0 0 40 0 40 -40 0 -40 0 0 -40z"/>
<path d="M12000 4700 l0 -40 40 0 40 0 0 40 0 40 -40 0 -40 0 0 -40z"/>
<path d="M12140 4700 l0 -40 40 0 40 0 0 40 0 40 -40 0 -40 0 0 -40z"/>
<path d="M13800 4639 l0 -101 -30 25 c-36 31 -95 42 -147 28 -133 -36 -177
-252 -76 -370 57 -67 159 -78 223 -24 l30 25 0 -26 c0 -23 4 -26 35 -26 l35 0
0 285 0 285 -35 0 -35 0 0 -101z m-52 -119 c41 -25 62 -73 62 -140 0 -102 -55
-166 -135 -156 -105 13 -153 178 -77 267 43 52 95 62 150 29z"/>
<path d="M9730 4650 l0 -60 -30 0 c-27 0 -30 -3 -30 -30 0 -27 3 -30 29 -30
l30 0 3 -155 c3 -176 10 -192 86 -202 61 -8 92 2 92 32 0 22 -4 25 -39 25 -66
0 -71 12 -71 166 l0 134 50 0 c49 0 50 1 50 30 0 29 -1 30 -50 30 l-50 0 0 60
0 60 -35 0 -35 0 0 -60z"/>
<path d="M8547 4586 c-71 -26 -115 -89 -124 -180 -10 -98 31 -185 107 -223
112 -57 237 3 271 131 21 79 -6 192 -59 239 -26 24 -88 46 -127 46 -16 0 -47
-6 -68 -13z m123 -61 c44 -23 64 -69 64 -145 0 -76 -20 -122 -64 -145 -58 -30
-126 -10 -157 48 -21 40 -23 139 -4 186 26 62 100 88 161 56z"/>
<path d="M9015 4584 c-16 -8 -38 -23 -47 -31 -17 -15 -18 -14 -18 10 0 24 -4
27 -35 27 l-35 0 0 -210 0 -210 34 0 35 0 3 151 3 151 33 29 c23 20 43 29 68
29 81 0 94 -32 94 -221 l0 -139 35 0 35 0 0 157 c0 137 -3 162 -20 199 -33 68
-117 94 -185 58z"/>
<path d="M9383 4579 c-96 -47 -96 -168 -1 -203 24 -9 65 -21 93 -26 85 -19
111 -68 59 -109 -48 -37 -145 -19 -179 33 -16 25 -18 25 -41 8 -32 -23 -30
-35 11 -70 111 -98 305 -44 305 85 0 56 -41 90 -144 117 -48 13 -92 30 -97 37
-14 23 -10 48 12 70 31 31 109 23 150 -17 l29 -28 22 22 c22 21 22 21 2 43
-50 57 -149 74 -221 38z"/>
<path d="M10125 4584 c-16 -8 -38 -23 -47 -31 -17 -15 -18 -14 -18 10 0 24 -4
27 -35 27 l-35 0 0 -210 0 -210 34 0 35 0 3 151 3 151 33 29 c23 20 43 29 68
29 81 0 94 -32 94 -221 l0 -139 35 0 35 0 0 157 c0 137 -3 162 -20 199 -33 68
-117 94 -185 58z"/>
<path d="M10526 4590 c-34 -11 -92 -64 -99 -90 -3 -14 3 -19 26 -24 26 -5 34
-1 58 26 23 29 33 33 74 33 37 0 51 -5 66 -24 10 -13 19 -34 19 -46 0 -20 -7
-24 -42 -30 -153 -26 -218 -71 -218 -150 0 -105 135 -161 234 -96 28 18 29 18
47 0 11 -11 33 -19 54 -19 32 0 35 3 35 29 0 20 -6 30 -20 34 -19 5 -20 14
-20 131 0 141 -11 181 -55 210 -31 21 -117 29 -159 16z m144 -250 c0 -77 -41
-120 -115 -120 -59 0 -91 51 -65 100 13 24 98 56 158 59 19 1 22 -4 22 -39z"/>
<path d="M11193 4579 c-96 -47 -96 -168 -1 -203 24 -9 65 -21 93 -26 85 -19
111 -68 59 -109 -48 -37 -145 -19 -179 33 -16 25 -18 25 -41 8 -32 -23 -30
-35 11 -70 111 -98 305 -44 305 85 0 56 -41 90 -144 117 -48 13 -92 30 -97 37
-14 23 -10 48 12 70 31 31 109 23 150 -17 l29 -28 22 22 c22 21 22 21 2 43
-50 57 -149 74 -221 38z"/>
<path d="M11645 4584 c-16 -8 -38 -23 -47 -31 -17 -15 -18 -14 -18 10 0 24 -4
27 -35 27 l-35 0 0 -210 0 -210 34 0 35 0 3 151 3 151 33 29 c23 20 43 29 68
29 81 0 94 -32 94 -221 l0 -139 35 0 35 0 0 157 c0 137 -3 162 -20 199 -33 68
-117 94 -185 58z"/>
<path d="M12046 4590 c-34 -11 -92 -64 -99 -90 -3 -14 3 -19 26 -24 26 -5 34
-1 58 26 23 29 33 33 74 33 37 0 51 -5 66 -24 10 -13 19 -34 19 -46 0 -20 -7
-24 -42 -30 -153 -26 -218 -71 -218 -150 0 -105 135 -161 234 -96 28 18 29 18
47 0 11 -11 33 -19 54 -19 32 0 35 3 35 29 0 20 -6 30 -20 34 -19 5 -20 14
-20 131 0 141 -11 181 -55 210 -31 21 -117 29 -159 16z m144 -250 c0 -77 -41
-120 -115 -120 -59 0 -91 51 -65 100 13 24 98 56 158 59 19 1 22 -4 22 -39z"/>
<path d="M12520 4589 c-14 -6 -35 -20 -47 -31 l-23 -21 0 26 c0 24 -4 27 -35
27 l-35 0 0 -210 0 -210 34 0 35 0 3 149 3 150 29 30 c22 23 39 31 64 31 78 0
92 -33 92 -221 l0 -139 35 0 35 0 0 140 c0 178 18 220 94 220 73 0 86 -31 86
-215 l0 -145 35 0 35 0 0 157 c0 137 -3 162 -20 199 -42 86 -159 98 -228 24
l-20 -21 -14 20 c-31 44 -102 62 -158 40z"/>
<path d="M13205 4584 c-16 -8 -38 -23 -47 -31 -17 -15 -18 -14 -18 10 0 24 -4
27 -35 27 l-35 0 0 -210 0 -210 34 0 35 0 3 151 3 151 33 29 c23 20 43 29 68
29 81 0 94 -32 94 -221 l0 -139 35 0 35 0 0 157 c0 137 -3 162 -20 199 -33 68
-117 94 -185 58z"/>
<path d="M14059 4577 c-29 -16 -54 -40 -74 -72 -27 -43 -30 -57 -30 -125 0
-64 5 -83 28 -122 34 -58 81 -88 149 -94 65 -7 131 24 166 75 24 37 21 46 -19
56 -21 5 -27 2 -32 -14 -6 -24 -63 -61 -95 -61 -46 0 -94 31 -113 74 -35 78
-38 76 131 76 l150 0 0 40 c0 145 -137 232 -261 167z m151 -64 c16 -16 33 -43
36 -60 l7 -33 -111 0 c-61 0 -113 3 -116 8 -10 16 25 73 56 92 47 28 91 26
128 -7z"/>
<path d="M14545 4584 c-16 -8 -38 -23 -47 -31 -17 -15 -18 -14 -18 10 0 24 -4
27 -35 27 l-35 0 0 -210 0 -210 34 0 35 0 3 151 3 151 33 29 c23 20 43 29 68
29 81 0 94 -32 94 -221 l0 -139 35 0 35 0 0 157 c0 137 -3 162 -20 199 -33 68
-117 94 -185 58z"/>
<path d="M10860 4380 l0 -210 35 0 35 0 0 125 c0 86 4 136 14 160 16 38 60 65
106 65 27 0 30 3 30 30 0 19 -6 33 -16 37 -25 10 -91 -16 -113 -44 l-21 -26 0
37 c0 35 -1 36 -35 36 l-35 0 0 -210z"/>
<path d="M2518 4378 c-163 -185 -207 -274 -227 -454 -11 -97 0 -220 28 -299
29 -83 72 -150 178 -278 104 -125 165 -237 184 -334 7 -38 9 -109 6 -180 -7
-183 -50 -278 -199 -452 -43 -50 -78 -93 -78 -96 0 -3 395 -5 878 -5 l879 0
69 81 c166 193 204 280 211 479 8 212 -30 315 -184 501 -47 57 -102 129 -121
159 -77 118 -111 274 -92 425 20 160 59 240 195 404 52 62 95 115 95 117 0 2
-395 4 -879 4 l-879 0 -64 -72z"/>
<path d="M4650 4352 l0 -99 123 -6 c653 -33 1248 -395 1581 -959 164 -279 266
-636 266 -935 l0 -73 100 0 100 0 0 83 c-1 105 -22 285 -50 412 -124 568 -493
1074 -1005 1380 -303 180 -709 295 -1046 295 l-69 0 0 -98z"/>
<path d="M4650 3971 l0 -98 108 -7 c404 -27 733 -176 1018 -460 177 -178 274
-325 361 -549 58 -151 103 -382 103 -532 l0 -45 100 0 100 0 0 49 c0 147 -38
371 -91 536 -40 125 -156 352 -236 464 -257 358 -651 616 -1071 700 -102 21
-273 41 -348 41 l-44 0 0 -99z"/>
<path d="M9600 3821 c-89 -27 -130 -78 -130 -161 0 -46 4 -56 33 -85 21 -21
53 -39 88 -48 30 -9 80 -23 112 -32 70 -19 97 -44 97 -87 -1 -62 -49 -98 -130
-98 -65 0 -107 18 -148 64 l-32 37 -30 -22 -29 -22 20 -29 c50 -70 182 -112
277 -88 93 23 142 82 142 170 0 43 -5 56 -33 86 -28 31 -48 40 -142 65 -65 18
-119 39 -132 51 -30 28 -29 70 0 104 20 23 34 28 84 32 69 5 110 -12 145 -58
l22 -30 23 22 c32 30 29 41 -18 81 -57 49 -149 69 -219 48z"/>
<path d="M14410 3815 c-167 -54 -235 -301 -127 -462 83 -123 260 -149 342 -52
l25 31 0 -41 c0 -40 1 -41 35 -41 l35 0 0 150 0 151 -117 -3 -118 -3 -3 -32
-3 -33 85 0 c82 0 86 -1 86 -22 0 -39 -40 -106 -76 -129 -47 -29 -135 -24
-183 11 -50 35 -81 110 -81 195 0 135 62 215 171 223 69 5 115 -18 145 -73 10
-19 19 -35 20 -35 14 0 64 24 64 31 0 24 -58 93 -97 116 -53 31 -139 39 -203
18z"/>
<path d="M16940 3815 c-63 -20 -114 -66 -147 -133 -24 -50 -28 -68 -28 -148 0
-81 3 -97 30 -149 56 -109 164 -162 279 -136 61 14 124 61 149 113 17 35 15
39 -29 52 -17 5 -26 0 -42 -29 -33 -54 -76 -77 -143 -73 -107 7 -169 89 -169
223 0 134 62 216 169 223 67 4 110 -19 143 -73 20 -36 34 -38 75 -16 18 10
-13 66 -59 105 -62 53 -142 67 -228 41z"/>
<path d="M7940 3785 l0 -35 95 0 95 0 0 -250 0 -250 40 0 40 0 0 250 0 250 95
0 95 0 0 35 0 35 -230 0 -230 0 0 -35z"/>
<path d="M8460 3535 l0 -285 34 0 35 0 3 151 3 151 33 29 c23 20 43 29 68 29
81 0 94 -32 94 -221 l0 -139 35 0 35 0 0 157 c0 137 -3 162 -20 199 -38 78
-140 97 -215 40 l-35 -27 0 100 0 101 -35 0 -35 0 0 -285z"/>
<path d="M11230 3719 l0 -101 -30 25 c-36 31 -95 42 -147 28 -133 -36 -177
-252 -76 -370 57 -67 159 -78 223 -24 l30 25 0 -26 c0 -23 4 -26 35 -26 l35 0
0 285 0 285 -35 0 -35 0 0 -101z m-52 -119 c41 -25 62 -73 62 -140 0 -102 -55
-166 -135 -156 -105 13 -153 178 -77 267 43 52 95 62 150 29z"/>
<path d="M11400 3780 l0 -40 40 0 40 0 0 40 0 40 -40 0 -40 0 0 -40z"/>
<path d="M11980 3535 l0 -285 34 0 35 0 3 151 3 151 33 29 c23 20 43 29 68 29
81 0 94 -32 94 -221 l0 -139 35 0 35 0 0 157 c0 137 -3 162 -20 199 -38 78
-140 97 -215 40 l-35 -27 0 100 0 101 -35 0 -35 0 0 -285z"/>
<path d="M12667 3542 c-59 -152 -107 -280 -107 -284 0 -5 15 -8 34 -8 34 0 35
2 63 75 l28 75 130 0 130 0 29 -75 29 -75 38 0 39 0 -19 48 c-14 36 -102 261
-198 510 -3 7 -23 12 -47 12 l-41 0 -108 -278z m213 26 l38 -98 -103 0 -103 0
51 132 51 131 14 -34 c8 -19 31 -78 52 -131z"/>
<path d="M19110 3780 l0 -40 40 0 40 0 0 40 0 40 -40 0 -40 0 0 -40z"/>
<path d="M13450 3730 l0 -60 -30 0 c-27 0 -30 -3 -30 -30 0 -27 3 -30 29 -30
l30 0 3 -155 c3 -176 10 -192 86 -202 61 -8 92 2 92 32 0 22 -4 25 -39 25 -66
0 -71 12 -71 166 l0 134 50 0 c49 0 50 1 50 30 0 29 -1 30 -50 30 l-50 0 0 60
0 60 -35 0 -35 0 0 -60z"/>
<path d="M15980 3730 l0 -60 -30 0 c-27 0 -30 -3 -30 -30 0 -27 3 -30 29 -30
l30 0 3 -155 c3 -176 10 -192 86 -202 61 -8 92 2 92 32 0 22 -4 25 -39 25 -66
0 -71 12 -71 166 l0 134 50 0 c49 0 50 1 50 30 0 29 -1 30 -50 30 l-50 0 0 60
0 60 -35 0 -35 0 0 -60z"/>
<path d="M19310 3730 l0 -60 -30 0 c-27 0 -30 -3 -30 -30 0 -27 3 -30 29 -30
l30 0 3 -155 c3 -176 10 -192 86 -202 61 -8 92 2 92 32 0 22 -4 25 -39 25 -66
0 -71 12 -71 166 l0 134 50 0 c49 0 50 1 50 30 0 29 -1 30 -50 30 l-50 0 0 60
0 60 -35 0 -35 0 0 -60z"/>
<path d="M19580 3730 l0 -60 -30 0 c-27 0 -30 -3 -30 -30 0 -27 3 -30 29 -30
l30 0 3 -155 c3 -176 10 -192 86 -202 61 -8 92 2 92 32 0 22 -4 25 -39 25 -66
0 -71 12 -71 166 l0 134 50 0 c49 0 50 1 50 30 0 29 -1 30 -50 30 l-50 0 0 60
0 60 -35 0 -35 0 0 -60z"/>
<path d="M4650 3581 l0 -98 113 -6 c194 -9 408 -82 578 -198 81 -55 216 -185
280 -269 70 -91 163 -285 194 -400 19 -73 45 -259 45 -322 0 -5 45 -8 100 -8
73 0 100 3 100 13 -1 73 -25 263 -45 345 -110 456 -459 832 -907 977 -134 44
-256 65 -369 65 l-89 0 0 -99z"/>
<path d="M8969 3657 c-29 -16 -54 -40 -74 -72 -27 -43 -30 -57 -30 -125 0 -64
5 -83 28 -122 34 -58 81 -88 149 -94 65 -7 131 24 166 75 24 37 21 46 -19 56
-21 5 -27 2 -32 -14 -6 -24 -63 -61 -95 -61 -46 0 -94 31 -113 74 -35 78 -38
76 131 76 l150 0 0 40 c0 145 -137 232 -261 167z m151 -64 c16 -16 33 -43 36
-60 l7 -33 -111 0 c-61 0 -113 3 -116 8 -10 16 25 73 56 92 47 28 91 26 128
-7z"/>
<path d="M10599 3657 c-29 -16 -54 -40 -74 -72 -27 -43 -30 -57 -30 -125 0
-64 5 -83 28 -122 34 -58 81 -88 149 -94 65 -7 131 24 166 75 24 37 21 46 -19
56 -21 5 -27 2 -32 -14 -6 -24 -63 -61 -95 -61 -46 0 -94 31 -113 74 -35 78
-38 76 131 76 l150 0 0 40 c0 145 -137 232 -261 167z m151 -64 c16 -16 33 -43
36 -60 l7 -33 -111 0 c-61 0 -113 3 -116 8 -10 16 25 73 56 92 47 28 91 26
128 -7z"/>
<path d="M11643 3659 c-96 -47 -96 -168 -1 -203 24 -9 65 -21 93 -26 85 -19
111 -68 59 -109 -48 -37 -145 -19 -179 33 -16 25 -18 25 -41 8 -32 -23 -30
-35 11 -70 111 -98 305 -44 305 85 0 56 -41 90 -144 117 -48 13 -92 30 -97 37
-14 23 -10 48 12 70 31 31 109 23 150 -17 l29 -28 22 22 c22 21 22 21 2 43
-50 57 -149 74 -221 38z"/>
<path d="M13763 3659 c-96 -47 -96 -168 -1 -203 24 -9 65 -21 93 -26 85 -19
111 -68 59 -109 -48 -37 -145 -19 -179 33 -16 25 -18 25 -41 8 -32 -23 -30
-35 11 -70 111 -98 305 -44 305 85 0 56 -41 90 -144 117 -48 13 -92 30 -97 37
-14 23 -10 48 12 70 31 31 109 23 150 -17 l29 -28 22 22 c22 21 22 21 2 43
-50 57 -149 74 -221 38z"/>
<path d="M15186 3670 c-34 -11 -92 -64 -99 -90 -3 -14 3 -19 26 -24 26 -5 34
-1 58 26 23 29 33 33 74 33 37 0 51 -5 66 -24 10 -13 19 -34 19 -46 0 -20 -7
-24 -42 -30 -153 -26 -218 -71 -218 -150 0 -105 135 -161 234 -96 28 18 29 18
47 0 11 -11 33 -19 54 -19 32 0 35 3 35 29 0 20 -6 30 -20 34 -19 5 -20 14
-20 131 0 141 -11 181 -55 210 -31 21 -117 29 -159 16z m144 -250 c0 -77 -41
-120 -115 -120 -59 0 -91 51 -65 100 13 24 98 56 158 59 19 1 22 -4 22 -39z"/>
<path d="M15655 3664 c-16 -8 -38 -23 -47 -31 -17 -15 -18 -14 -18 10 0 24 -4
27 -35 27 l-35 0 0 -210 0 -210 34 0 35 0 3 151 3 151 33 29 c23 20 43 29 68
29 81 0 94 -32 94 -221 l0 -139 35 0 35 0 0 157 c0 137 -3 162 -20 199 -33 68
-117 94 -185 58z"/>
<path d="M16293 3659 c-96 -47 -96 -168 -1 -203 24 -9 65 -21 93 -26 85 -19
111 -68 59 -109 -48 -37 -145 -19 -179 33 -16 25 -18 25 -41 8 -32 -23 -30
-35 11 -70 111 -98 305 -44 305 85 0 56 -41 90 -144 117 -48 13 -92 30 -97 37
-14 23 -10 48 12 70 31 31 109 23 150 -17 l29 -28 22 22 c22 21 22 21 2 43
-50 57 -149 74 -221 38z"/>
<path d="M17417 3666 c-71 -26 -115 -89 -124 -180 -10 -98 31 -185 107 -223
112 -57 237 3 271 131 21 79 -6 192 -59 239 -26 24 -88 46 -127 46 -16 0 -47
-6 -68 -13z m123 -61 c44 -23 64 -69 64 -145 0 -76 -20 -122 -64 -145 -58 -30
-126 -10 -157 48 -21 40 -23 139 -4 186 26 62 100 88 161 56z"/>
<path d="M17890 3669 c-14 -6 -35 -20 -47 -31 l-23 -21 0 26 c0 24 -4 27 -35
27 l-35 0 0 -210 0 -210 34 0 35 0 3 149 3 150 29 30 c22 23 39 31 64 31 78 0
92 -33 92 -221 l0 -139 35 0 35 0 0 140 c0 178 18 220 94 220 73 0 86 -31 86
-215 l0 -145 35 0 35 0 0 157 c0 137 -3 162 -20 199 -42 86 -159 98 -228 24
l-20 -21 -14 20 c-31 44 -102 62 -158 40z"/>
<path d="M18570 3669 c-14 -6 -35 -20 -47 -31 l-23 -21 0 26 c0 24 -4 27 -35
27 l-35 0 0 -210 0 -210 34 0 35 0 3 149 3 150 29 30 c22 23 39 31 64 31 78 0
92 -33 92 -221 l0 -139 35 0 35 0 0 140 c0 178 18 220 94 220 73 0 86 -31 86
-215 l0 -145 35 0 35 0 0 157 c0 137 -3 162 -20 199 -42 86 -159 98 -228 24
l-20 -21 -14 20 c-31 44 -102 62 -158 40z"/>
<path d="M19919 3657 c-29 -16 -54 -40 -74 -72 -27 -43 -30 -57 -30 -125 0
-64 5 -83 28 -122 34 -58 81 -88 149 -94 65 -7 131 24 166 75 24 37 21 46 -19
56 -21 5 -27 2 -32 -14 -6 -24 -63 -61 -95 -61 -46 0 -94 31 -113 74 -35 78
-38 76 131 76 l150 0 0 40 c0 145 -137 232 -261 167z m151 -64 c16 -16 33 -43
36 -60 l7 -33 -111 0 c-61 0 -113 3 -116 8 -10 16 25 73 56 92 47 28 91 26
128 -7z"/>
<path d="M20339 3657 c-29 -16 -54 -40 -74 -72 -27 -43 -30 -57 -30 -125 0
-64 5 -83 28 -122 34 -58 81 -88 149 -94 65 -7 131 24 166 75 24 37 21 46 -19
56 -21 5 -27 2 -32 -14 -6 -24 -63 -61 -95 -61 -46 0 -94 31 -113 74 -35 78
-38 76 131 76 l150 0 0 40 c0 145 -137 232 -261 167z m151 -64 c16 -16 33 -43
36 -60 l7 -33 -111 0 c-61 0 -113 3 -116 8 -10 16 25 73 56 92 47 28 91 26
128 -7z"/>
<path d="M9915 3623 c112 -376 109 -368 142 -371 35 -3 27 -22 89 201 15 53
31 94 34 90 4 -5 25 -72 46 -150 l39 -143 31 0 31 0 61 203 c34 112 62 207 62
210 0 4 -15 7 -33 7 l-34 0 -42 -155 c-24 -86 -45 -155 -46 -153 -1 2 -19 64
-39 138 -21 74 -39 143 -42 153 -4 11 -15 17 -34 17 -32 0 -29 8 -81 -182 -18
-65 -35 -115 -38 -112 -3 3 -24 69 -46 147 l-41 142 -36 3 -37 3 14 -48z"/>
<path d="M11400 3460 l0 -210 35 0 35 0 0 210 0 210 -35 0 -35 0 0 -210z"/>
<path d="M13140 3460 l0 -210 35 0 35 0 0 125 c0 86 4 136 14 160 16 38 60 65
106 65 27 0 30 3 30 30 0 19 -6 33 -16 37 -25 10 -91 -16 -113 -44 l-21 -26 0
37 c0 35 -1 36 -35 36 l-35 0 0 -210z"/>
<path d="M14820 3460 l0 -210 35 0 35 0 0 125 c0 86 4 136 14 160 16 38 60 65
106 65 27 0 30 3 30 30 0 19 -6 33 -16 37 -25 10 -91 -16 -113 -44 l-21 -26 0
37 c0 35 -1 36 -35 36 l-35 0 0 -210z"/>
<path d="M19110 3460 l0 -210 35 0 35 0 0 210 0 210 -35 0 -35 0 0 -210z"/>
<path d="M4650 3202 l0 -102 55 0 c128 0 302 -56 412 -132 212 -146 353 -396
353 -625 l0 -63 102 0 101 0 -6 103 c-30 485 -431 886 -914 914 l-103 6 0
-101z"/>
<path d="M4650 2820 l0 -100 38 0 c195 -1 380 -174 399 -373 l6 -67 100 0 100
0 -6 78 c-17 209 -144 400 -328 491 -86 43 -192 71 -266 71 l-43 0 0 -100z"/>
<path d="M4650 2410 l0 -130 130 0 c149 0 145 -4 114 99 -20 70 -75 125 -145
145 -103 31 -99 35 -99 -114z"/>
</g>
</svg>
